<svg xmlns="http://www.w3.org/2000/svg" viewBox="0 0 61 14.17"><defs><style>.d{fill:#f6f6f6;}</style></defs><g id="a"></g><g id="b"><g id="c"><g><path class="d" d="M7.68,0c.19,0,.39,.03,.58,.06,.1,.02,.27,.06,.36,.09,.8,.26,1.41,.79,1.91,1.46,.34,.46,.56,.98,.81,1.49,1.24,2.5,2.48,4.99,3.72,7.5,.31,.62,.41,1.27,.21,1.95-.22,.72-.76,1.14-1.43,1.43-.05,.02-.09,.04-.14,.05-.34,.11-.7,.15-1.06,.15h-.09c-.06,0-.16-.03-.18-.03-.96-.15-1.76-.62-2.48-1.26-.02-.02-.05-.03-.04-.07,.15,0,.3-.02,.45-.03,.39-.03,.78-.1,1.13-.29,.49-.27,.71-.69,.64-1.29-.03-.22-.11-.43-.21-.63-.2-.41-.4-.81-.61-1.22-.83-1.67-1.66-3.34-2.49-5.02-.15-.29-.33-.56-.63-.74-.28-.16-.63-.16-.91,0-.3,.18-.49,.44-.63,.74-.89,1.8-1.79,3.61-2.68,5.41-.19,.38-.41,.74-.54,1.14-.24,.73,.18,1.53,.92,1.76,.18,.06,.35,.1,.54,.11,.23,.02,.46,.04,.71,.06-.02,.03-.03,.04-.05,.06-.53,.47-1.12,.85-1.79,1.09-.17,.06-.34,.1-.51,.13-.2,.04-.4,.07-.6,.07-.22,0-.45-.03-.66-.08-.13-.03-.27-.07-.39-.12-.65-.29-1.19-.7-1.42-1.41C-.1,11.89,0,11.23,.31,10.6c1.25-2.54,2.52-5.08,3.78-7.62,.23-.46,.43-.94,.74-1.36C5.36,.91,6.01,.35,6.9,.1c.02,0,.05-.01,.07-.02,.23-.05,.47-.09,.71-.09h0Z"></path><g><path class="d" d="M22.6,5.02h1.29v5h-1.29v-.59c-.39,.49-.93,.73-1.63,.73s-1.24-.25-1.72-.76c-.47-.51-.71-1.14-.71-1.88s.24-1.36,.71-1.87c.48-.51,1.05-.77,1.72-.77s1.24,.24,1.63,.73v-.59Zm-1.39,3.91c.4,0,.73-.13,.99-.39,.27-.27,.4-.61,.4-1.02s-.13-.75-.4-1.01c-.26-.27-.59-.4-.99-.4s-.73,.13-.99,.4c-.26,.26-.39,.6-.39,1.01s.13,.75,.39,1.02c.26,.26,.59,.39,.99,.39Z"></path><path class="d" d="M25.06,10.02V2.73h1.29v7.3h-1.29Z"></path><path class="d" d="M27.53,10.02V2.73h1.29v7.3h-1.29Z"></path><path class="d" d="M33.3,5.02h1.29v5h-1.29v-.56c-.31,.47-.81,.7-1.49,.7-.55,0-1-.18-1.36-.55-.35-.37-.53-.87-.53-1.52v-3.07h1.29v2.91c0,.67,.39,1.03,.99,1.03,.67,0,1.1-.41,1.1-1.24v-2.7Z"></path><path class="d" d="M35.87,3.83c-.19-.19-.19-.49,0-.68s.49-.19,.68,0c.19,.19,.19,.49,0,.68s-.49,.19-.68,0Zm0,6.2V5.02h.66v5h-.66Z"></path><path class="d" d="M42.24,6.95v3.07h-.66v-3.07c0-.89-.49-1.41-1.36-1.41-.96,0-1.62,.59-1.62,1.86v2.62h-.66V5.02h.66v.78c.37-.6,.93-.9,1.68-.9,1.21,0,1.96,.8,1.96,2.05Z"></path><path class="d" d="M47.07,5.02h.7l-2.05,5h-.8l-2.05-5h.7l1.75,4.31,1.75-4.31Z"></path><path class="d" d="M52.47,5.69c.46,.52,.69,1.14,.69,1.85,0,.07-.01,.18-.02,.31h-4.39c.13,1.01,.92,1.65,1.99,1.65,.76,0,1.33-.34,1.61-.85l.58,.34c-.44,.71-1.23,1.15-2.2,1.15-.79,0-1.43-.25-1.92-.74-.49-.49-.74-1.12-.74-1.88s.24-1.37,.73-1.87c.49-.5,1.11-.75,1.88-.75s1.34,.26,1.79,.79Zm-3.72,1.52h3.73c-.07-.53-.27-.94-.61-1.23-.34-.29-.74-.44-1.19-.44-1.04,0-1.8,.68-1.93,1.67Z"></path><path class="d" d="M55.56,7.18c.84,.21,1.89,.44,1.89,1.52,0,.43-.17,.77-.51,1.04-.33,.27-.77,.4-1.3,.4-.96,0-1.66-.47-1.93-1.15l.56-.33c.19,.52,.7,.84,1.37,.84s1.15-.25,1.15-.8c0-.45-.46-.7-1.03-.85-.84-.21-1.89-.44-1.89-1.52,0-.41,.16-.75,.48-1.02,.33-.27,.74-.41,1.23-.41,.81,0,1.46,.39,1.75,1.02l-.55,.32c-.19-.47-.59-.7-1.2-.7-.57,0-1.05,.28-1.05,.79,0,.45,.46,.7,1.03,.85Z"></path><path class="d" d="M61,5.66h-1.44v3.03c0,.86,.48,.79,1.44,.75v.58c-1.4,.21-2.1-.17-2.1-1.33v-3.03h-1.05v-.64h1.05v-1.2l.66-.2v1.4h1.44v.64Z"></path></g></g></g></g></svg>